<svg width="800" height="600" xmlns="http://www.w3.org/2000/svg" stroke="null" style="vector-effect: non-scaling-stroke;">
 <g stroke="null">
  <title stroke="null">Layer 1</title>
  <g stroke="null" style="vector-effect: non-scaling-stroke;" id="svg_15">
   <rect stroke="#b5995d" style="vector-effect: non-scaling-stroke;" fill="none" x="177.16574" y="194.66652" width="100" height="100" id="svg_1"/>
   <rect stroke="#b5995d" style="vector-effect: non-scaling-stroke;" fill="none" x="157.83239" y="173.66652" width="140" height="140" id="svg_4"/>
  </g>
  <g stroke="null" style="vector-effect: non-scaling-stroke;" id="svg_18">
   <rect stroke="#b5995d" style="vector-effect: non-scaling-stroke;" fill="none" x="515.16577" y="194.66652" width="100" height="100" id="svg_16"/>
   <rect stroke="#b5995d" style="vector-effect: non-scaling-stroke;" fill="none" x="495.83242" y="173.66652" width="140" height="140" id="svg_17"/>
  </g>
  <g stroke="null" style="vector-effect: non-scaling-stroke;" id="svg_20">
   <rect transform="rotate(45 397.328 174.502)" stroke="#b5995d" style="vector-effect: non-scaling-stroke;" fill="none" x="347.32815" y="124.50167" width="100" height="100" id="svg_31"/>
   <rect transform="rotate(45 396.995 173.668)" stroke="#b5995d" style="vector-effect: non-scaling-stroke;" fill="none" x="326.99482" y="103.66834" width="140" height="140" id="svg_13"/>
  </g>
  <rect stroke="#b5995d" style="vector-effect: non-scaling-stroke;" id="svg_21" height="20" width="159.99999" y="153.66668" x="137.66673" fill="none"/>
  <rect stroke="#b5995d" id="svg_23" height="160.00002" width="20" y="173.66669" x="137.66672" fill="none"/>
  <rect transform="rotate(45 371.333 260.666)" stroke="#b5995d" id="svg_24" height="20" width="186.39865" y="250.66642" x="278.13414" fill="none"/>
  <rect transform="rotate(135 101.773 355.833)" stroke="#b5995d" id="svg_25" height="20" width="140" y="345.83335" x="31.77325" fill="none"/>
  <rect stroke="#b5995d" style="vector-effect: non-scaling-stroke;" id="svg_26" height="20" width="159.99999" y="153.66668" x="495.66678" fill="none"/>
  <rect stroke="#b5995d" id="svg_27" height="160.00004" width="20" y="173.66667" x="635.66677" fill="none"/>
  <rect transform="rotate(45 207.805 348.666)" stroke="#b5995d" id="svg_28" height="20" width="160" y="338.66646" x="127.80484" fill="none"/>
  <rect transform="rotate(135 423 261.333)" stroke="#b5995d" id="svg_29" height="20" width="185.45585" y="251.33334" x="330.27213" fill="none"/>
  <rect stroke="#b5995d" id="svg_30" height="20" width="207.33334" y="313.66669" x="157.66673" fill="none"/>
  <rect stroke="#b5995d" id="svg_32" height="20" width="205.33334" y="313.66669" x="430.33343" fill="none"/>
  <g stroke="null" style="vector-effect: non-scaling-stroke;" id="svg_35">
   <rect transform="rotate(45 157.995 413.168)" stroke="#b5995d" style="vector-effect: non-scaling-stroke;" fill="none" x="107.99479" y="363.16837" width="100" height="100" id="svg_33"/>
   <rect transform="rotate(45 157.662 412.335)" stroke="#b5995d" style="vector-effect: non-scaling-stroke;" fill="none" x="87.66146" y="342.33504" width="140" height="140" id="svg_34"/>
  </g>
  <g stroke="null" id="svg_38">
   <rect transform="rotate(45 635.328 413.168)" stroke="#b5995d" fill="none" x="585.32816" y="363.16837" width="100" height="100" id="svg_36"/>
   <rect transform="rotate(45 634.995 412.335)" stroke="#b5995d" fill="none" x="564.99483" y="342.33504" width="140" height="140" id="svg_37"/>
  </g>
  <rect transform="rotate(135 237.833 445.833)" stroke="#b5995d" id="svg_39" height="20" width="205.72622" y="435.83338" x="134.97021" fill="none"/>
  <rect transform="rotate(45 100.993 468.671)" stroke="#b5995d" id="svg_40" height="20" width="179.79734" y="458.67084" x="11.09459" fill="none"/>
  <rect transform="rotate(135 585.805 349.001)" stroke="#b5995d" id="svg_41" height="20" width="160" y="339.00058" x="505.80486" fill="none"/>
  <rect stroke="#b5995d" id="svg_42" height="90.66672" width="20" y="223.00002" x="297.66674" fill="none"/>
  <rect transform="rotate(135 684.333 476)" stroke="#b5995d" id="svg_43" height="20" width="160" y="466" x="604.33312" fill="none"/>
  <rect stroke="#b5995d" id="svg_44" height="90.66672" width="20" y="223.00001" x="475.66676" fill="none"/>
  <rect transform="rotate(45 555.167 445.833)" stroke="#b5995d" id="svg_45" height="20" width="204.78343" y="435.83308" x="452.77508" fill="none"/>
  <rect transform="rotate(45 698.764 362.833)" stroke="#b5995d" id="svg_46" height="20" width="159" y="352.83319" x="619.26445" fill="none"/>
  <rect stroke="#b5995d" id="svg_47" height="46.66673" width="20" y="333.66666" x="297.00007" fill="none"/>
  <rect stroke="#b5995d" id="svg_48" height="46.66673" width="20" y="333.66665" x="475.33333" fill="none"/>
  <rect transform="rotate(135 340.5 117.167)" stroke="#b5995d" id="svg_49" height="20" width="139.72961" y="107.16672" x="270.63521" fill="none"/>
  <rect transform="rotate(45 446.54 109.833)" stroke="#b5995d" id="svg_50" height="20" width="160" y="99.83332" x="366.54012" fill="none"/>
 </g>

</svg>